<svg width="170" height="44" viewBox="0 0 170 44" fill="none" xmlns="http://www.w3.org/2000/svg">
<path d="M17.253 2.029V5.211H4.224V15.316H14.802V18.498H4.224V32H0.311V2.029H17.253ZM32.256 32.387C30.0486 32.387 28.042 31.8853 26.236 30.882C24.4586 29.8787 23.054 28.4597 22.022 26.625C21.0186 24.7617 20.517 22.6117 20.517 20.175C20.517 17.767 21.033 15.6457 22.065 13.811C23.1256 11.9477 24.559 10.5287 26.365 9.554C28.171 8.55067 30.192 8.049 32.428 8.049C34.664 8.049 36.685 8.55067 38.491 9.554C40.297 10.5287 41.716 11.9333 42.748 13.768C43.8086 15.6027 44.339 17.7383 44.339 20.175C44.339 22.6117 43.7943 24.7617 42.705 26.625C41.6443 28.4597 40.1966 29.8787 38.362 30.882C36.5273 31.8853 34.492 32.387 32.256 32.387ZM32.256 28.947C33.6606 28.947 34.9793 28.6173 36.212 27.958C37.4446 27.2987 38.4336 26.3097 39.179 24.991C39.953 23.6723 40.34 22.067 40.34 20.175C40.34 18.283 39.9673 16.6777 39.222 15.359C38.4766 14.0403 37.502 13.0657 36.298 12.435C35.094 11.7757 33.7896 11.446 32.385 11.446C30.9516 11.446 29.633 11.7757 28.429 12.435C27.2536 13.0657 26.3076 14.0403 25.591 15.359C24.8743 16.6777 24.516 18.283 24.516 20.175C24.516 22.0957 24.86 23.7153 25.548 25.034C26.2646 26.3527 27.2106 27.3417 28.386 28.001C29.5613 28.6317 30.8513 28.947 32.256 28.947ZM59.7609 32.387C57.5535 32.387 55.5469 31.8853 53.7409 30.882C51.9635 29.8787 50.5589 28.4597 49.5269 26.625C48.5235 24.7617 48.0219 22.6117 48.0219 20.175C48.0219 17.767 48.5379 15.6457 49.5699 13.811C50.6305 11.9477 52.0639 10.5287 53.8699 9.554C55.6759 8.55067 57.6969 8.049 59.9329 8.049C62.1689 8.049 64.1899 8.55067 65.9959 9.554C67.8019 10.5287 69.2209 11.9333 70.2529 13.768C71.3135 15.6027 71.8439 17.7383 71.8439 20.175C71.8439 22.6117 71.2992 24.7617 70.2099 26.625C69.1492 28.4597 67.7015 29.8787 65.8669 30.882C64.0322 31.8853 61.9969 32.387 59.7609 32.387ZM59.7609 28.947C61.1655 28.947 62.4842 28.6173 63.7169 27.958C64.9495 27.2987 65.9385 26.3097 66.6839 24.991C67.4579 23.6723 67.8449 22.067 67.8449 20.175C67.8449 18.283 67.4722 16.6777 66.7269 15.359C65.9815 14.0403 65.0069 13.0657 63.8029 12.435C62.5989 11.7757 61.2945 11.446 59.8899 11.446C58.4565 11.446 57.1379 11.7757 55.9339 12.435C54.7585 13.0657 53.8125 14.0403 53.0959 15.359C52.3792 16.6777 52.0209 18.283 52.0209 20.175C52.0209 22.0957 52.3649 23.7153 53.0529 25.034C53.7695 26.3527 54.7155 27.3417 55.8909 28.001C57.0662 28.6317 58.3562 28.947 59.7609 28.947Z" fill="#5F93FE"/>
<path d="M75.5267 20.132C75.5267 17.724 76.0141 15.617 76.9887 13.811C77.9634 11.9763 79.2964 10.5573 80.9877 9.554C82.7077 8.55067 84.6284 8.049 86.7497 8.049C88.5844 8.049 90.2901 8.479 91.8667 9.339C93.4434 10.1703 94.6474 11.274 95.4787 12.65V0.18H99.4347V32H95.4787V27.571C94.7047 28.9757 93.5581 30.1367 92.0387 31.054C90.5194 31.9427 88.7421 32.387 86.7067 32.387C84.6141 32.387 82.7077 31.871 80.9877 30.839C79.2964 29.807 77.9634 28.3593 76.9887 26.496C76.0141 24.6327 75.5267 22.5113 75.5267 20.132ZM95.4787 20.175C95.4787 18.3977 95.1204 16.8497 94.4037 15.531C93.6871 14.2123 92.7124 13.209 91.4797 12.521C90.2757 11.8043 88.9427 11.446 87.4807 11.446C86.0187 11.446 84.6857 11.79 83.4817 12.478C82.2777 13.166 81.3174 14.1693 80.6007 15.488C79.8841 16.8067 79.5257 18.3547 79.5257 20.132C79.5257 21.938 79.8841 23.5147 80.6007 24.862C81.3174 26.1807 82.2777 27.1983 83.4817 27.915C84.6857 28.603 86.0187 28.947 87.4807 28.947C88.9427 28.947 90.2757 28.603 91.4797 27.915C92.7124 27.1983 93.6871 26.1807 94.4037 24.862C95.1204 23.5147 95.4787 21.9523 95.4787 20.175ZM127.547 19.315C127.547 20.0603 127.504 20.8487 127.418 21.68H108.584C108.728 24.002 109.516 25.8223 110.949 27.141C112.411 28.431 114.174 29.076 116.238 29.076C117.93 29.076 119.334 28.689 120.452 27.915C121.599 27.1123 122.402 26.0517 122.86 24.733H127.074C126.444 26.9977 125.182 28.8467 123.29 30.28C121.398 31.6847 119.048 32.387 116.238 32.387C114.002 32.387 111.996 31.8853 110.218 30.882C108.47 29.8787 107.094 28.4597 106.09 26.625C105.087 24.7617 104.585 22.6117 104.585 20.175C104.585 17.7383 105.073 15.6027 106.047 13.768C107.022 11.9333 108.384 10.5287 110.132 9.554C111.91 8.55067 113.945 8.049 116.238 8.049C118.474 8.049 120.452 8.53633 122.172 9.511C123.892 10.4857 125.211 11.833 126.128 13.553C127.074 15.2443 127.547 17.165 127.547 19.315ZM123.505 18.498C123.505 17.0073 123.176 15.7317 122.516 14.671C121.857 13.5817 120.954 12.7647 119.807 12.22C118.689 11.6467 117.442 11.36 116.066 11.36C114.088 11.36 112.397 11.9907 110.992 13.252C109.616 14.5133 108.828 16.262 108.627 18.498H123.505ZM136.625 12.263C137.313 10.9157 138.288 9.86933 139.549 9.124C140.839 8.37867 142.402 8.006 144.236 8.006V12.048H143.204C138.818 12.048 136.625 14.4273 136.625 19.186V32H132.712V8.436H136.625V12.263ZM169.049 8.436L154.859 43.094H150.817L155.461 31.742L145.958 8.436H150.301L157.697 27.528L165.007 8.436H169.049Z" fill="black"/>
</svg>
