<svg width="23" height="23" viewBox="0 0 23 23" fill="none" xmlns="http://www.w3.org/2000/svg">
<circle cx="12" cy="11" r="9" stroke="#3E3E3E" stroke-width="2"/>
<path d="M12 5L12 17" stroke="#3E3E3E" stroke-width="2" stroke-linecap="round"/>
<path d="M15 8C15.5523 8 16 7.55228 16 7C16 6.44772 15.5523 6 15 6V8ZM11 8H15V6H11V8ZM12 10H11V12H12V10ZM8 9C8 10.6569 9.34315 12 11 12V10C10.4477 10 10 9.55228 10 9H8ZM11 6C9.34315 6 8 7.34315 8 9H10C10 8.44772 10.4477 8 11 8V6Z" fill="#3E3E3E"/>
<path d="M9 14C8.44772 14 8 14.4477 8 15C8 15.5523 8.44772 16 9 16V14ZM13 14H9V16H13V14ZM12 12H13V10H12V12ZM16 13C16 11.3431 14.6569 10 13 10V12C13.5523 12 14 12.4477 14 13H16ZM13 16C14.6569 16 16 14.6569 16 13H14C14 13.5523 13.5523 14 13 14V16Z" fill="#3E3E3E"/>
</svg>
