<svg width="21" height="27" viewBox="0 0 21 27" fill="none" xmlns="http://www.w3.org/2000/svg">
<path d="M0 27V6H5.25V5.25C5.25 3.792 5.7605 2.5525 6.7815 1.5315C7.8025 0.5105 9.042 0 10.5 0C11.958 0 13.1975 0.5105 14.2185 1.5315C15.2395 2.5525 15.75 3.792 15.75 5.25V6H21V27H0ZM2 25H19V8.5H15.75V12H14.25V8.5H6.75V12H5.25V8.5H2V25ZM6.75 6H14.25V5.25C14.25 4.194 13.889 3.305 13.167 2.583C12.445 1.861 11.556 1.5 10.5 1.5C9.444 1.5 8.555 1.861 7.833 2.583C7.111 3.305 6.75 4.194 6.75 5.25V6Z" fill="#909090"/>
</svg>
