<svg width="23" height="24" viewBox="0 0 23 24" fill="none" xmlns="http://www.w3.org/2000/svg">
<path fill-rule="evenodd" clip-rule="evenodd" d="M21.0833 18.7445V10.4429C21.0833 9.40213 20.6036 8.42295 19.7903 7.80346L12.6409 2.35796C11.9631 1.84176 11.0369 1.84176 10.3591 2.35796L3.20969 7.80346C2.39635 8.42295 1.91667 9.40213 1.91667 10.4429V18.7445C1.91667 20.5586 3.34687 22.0292 5.11111 22.0292H17.8889C19.6531 22.0292 21.0833 20.5586 21.0833 18.7445ZM2.06884 6.2198C0.767501 7.21098 0 8.77767 0 10.4429V18.7445C0 21.647 2.28832 24 5.11111 24H17.8889C20.7117 24 23 21.647 23 18.7445V10.4429C23 8.77767 22.2325 7.21098 20.9312 6.2198L13.7817 0.774303C12.4263 -0.258101 10.5737 -0.258101 9.21829 0.774303L2.06884 6.2198Z" fill="#A6A6A6"/>
<path fill-rule="evenodd" clip-rule="evenodd" d="M7.98608 17.4307C7.98608 16.8865 8.41514 16.4453 8.94442 16.4453H14.0555C14.5848 16.4453 15.0139 16.8865 15.0139 17.4307C15.0139 17.9749 14.5848 18.4161 14.0555 18.4161H8.94442C8.41514 18.4161 7.98608 17.9749 7.98608 17.4307Z" fill="#A6A6A6"/>
</svg>
