<svg width="23" height="23" viewBox="0 0 23 23" fill="none" xmlns="http://www.w3.org/2000/svg">
<path fill-rule="evenodd" clip-rule="evenodd" d="M0 2.29994C0 1.02972 1.02975 0 2.30001 0H8.20917C9.47943 0 10.5092 1.02972 10.5092 2.29994V8.20894C10.5092 9.47916 9.47943 10.5089 8.20917 10.5089H2.30001C1.02975 10.5089 0 9.47916 0 8.20894V2.29994ZM2.30001 1.97138C2.11854 1.97138 1.97143 2.11848 1.97143 2.29994V8.20894C1.97143 8.3904 2.11854 8.5375 2.30001 8.5375H8.20917C8.39064 8.5375 8.53775 8.3904 8.53775 8.20894V2.29994C8.53775 2.11848 8.39064 1.97138 8.20917 1.97138H2.30001Z" fill="#A6A6A6"/>
<path fill-rule="evenodd" clip-rule="evenodd" d="M0 14.7911C0 13.5208 1.02975 12.4911 2.30001 12.4911H8.20917C9.47943 12.4911 10.5092 13.5208 10.5092 14.7911V20.7001C10.5092 21.9703 9.47943 23 8.20917 23H2.30001C1.02975 23 0 21.9703 0 20.7001V14.7911ZM2.30001 14.4625C2.11854 14.4625 1.97143 14.6096 1.97143 14.7911V20.7001C1.97143 20.8815 2.11854 21.0286 2.30001 21.0286H8.20917C8.39064 21.0286 8.53775 20.8815 8.53775 20.7001V14.7911C8.53775 14.6096 8.39064 14.4625 8.20917 14.4625H2.30001Z" fill="#A6A6A6"/>
<path fill-rule="evenodd" clip-rule="evenodd" d="M12.4908 2.29994C12.4908 1.02972 13.5206 0 14.7908 0H20.7C21.9703 0 23 1.02972 23 2.29994V8.20894C23 9.47916 21.9703 10.5089 20.7 10.5089H14.7908C13.5206 10.5089 12.4908 9.47916 12.4908 8.20894V2.29994ZM14.7908 1.97138C14.6094 1.97138 14.4623 2.11848 14.4623 2.29994V8.20894C14.4623 8.3904 14.6094 8.5375 14.7908 8.5375H20.7C20.8815 8.5375 21.0286 8.3904 21.0286 8.20894V2.29994C21.0286 2.11848 20.8815 1.97138 20.7 1.97138H14.7908Z" fill="#A6A6A6"/>
<path fill-rule="evenodd" clip-rule="evenodd" d="M12.4908 14.7911C12.4908 13.5208 13.5206 12.4911 14.7908 12.4911H20.7C21.9703 12.4911 23 13.5208 23 14.7911V20.7001C23 21.9703 21.9703 23 20.7 23H14.7908C13.5206 23 12.4908 21.9703 12.4908 20.7001V14.7911ZM14.7908 14.4625C14.6094 14.4625 14.4623 14.6096 14.4623 14.7911V20.7001C14.4623 20.8815 14.6094 21.0286 14.7908 21.0286H20.7C20.8815 21.0286 21.0286 20.8815 21.0286 20.7001V14.7911C21.0286 14.6096 20.8815 14.4625 20.7 14.4625H14.7908Z" fill="#A6A6A6"/>
</svg>
