<svg width="23" height="23" viewBox="0 0 23 23" fill="none" xmlns="http://www.w3.org/2000/svg">
<circle cx="11.5" cy="7.5" r="4.5" stroke="#3E3E3E" stroke-width="2"/>
<path d="M19 6V10C19 12.7614 16.7614 15 14 15H10" stroke="#3E3E3E" stroke-width="2" stroke-linecap="round"/>
<path d="M20 21C20.5523 21 21 20.5523 21 20C21 19.4477 20.5523 19 20 19V21ZM20 19H3.38095V21H20V19ZM10.619 13H11.5V11H10.619V13ZM3.38095 19C3.72284 19 4 19.2772 4 19.619H2C2 20.3817 2.61827 21 3.38095 21V19ZM4 19.619C4 15.9634 6.96345 13 10.619 13V11C5.85888 11 2 14.8589 2 19.619H4Z" fill="#3E3E3E"/>
</svg>
