<svg width="21" height="25" viewBox="0 0 21 25" fill="none" xmlns="http://www.w3.org/2000/svg">
<path fill-rule="evenodd" clip-rule="evenodd" d="M10.5 2.02703C8.44229 2.02703 6.77419 3.69083 6.77419 5.74324C6.77419 7.79565 8.44229 9.45946 10.5 9.45946C12.5577 9.45946 14.2258 7.79565 14.2258 5.74324C14.2258 3.69083 12.5577 2.02703 10.5 2.02703ZM4.74194 5.74324C4.74194 2.57134 7.31991 0 10.5 0C13.6801 0 16.2581 2.57134 16.2581 5.74324C16.2581 8.91515 13.6801 11.4865 10.5 11.4865C7.31991 11.4865 4.74194 8.91515 4.74194 5.74324Z" fill="#A6A6A6"/>
<path fill-rule="evenodd" clip-rule="evenodd" d="M0 19.9324C0 16.3874 2.88126 13.5135 6.43548 13.5135H14.5645C18.1187 13.5135 21 16.3874 21 19.9324V22.6351C21 23.9412 19.9385 25 18.629 25H2.37097C1.06152 25 0 23.9412 0 22.6351V19.9324ZM6.43548 15.5405C4.00365 15.5405 2.03226 17.5069 2.03226 19.9324V22.6351C2.03226 22.8217 2.1839 22.973 2.37097 22.973H18.629C18.8161 22.973 18.9677 22.8217 18.9677 22.6351V19.9324C18.9677 17.5069 16.9964 15.5405 14.5645 15.5405H6.43548Z" fill="#A6A6A6"/>
</svg>
